<svg width="40" height="40" viewBox="0 0 40 40" fill="none" xmlns="http://www.w3.org/2000/svg">
<g clip-path="url(#clip0_1018_137)">
<path d="M25.2996 18.2333C25.6329 17.5 25.8329 16.7 25.8329 15.8333C25.8329 12.6167 23.2163 10 19.9996 10C19.1329 10 18.3329 10.2 17.5996 10.5333L25.2996 18.2333Z" fill="#FF5252"/>
<path d="M19.9997 3.33333C10.7997 3.33333 3.33301 10.8 3.33301 20C3.33301 29.2 10.7997 36.6667 19.9997 36.6667C29.1997 36.6667 36.6663 29.2 36.6663 20C36.6663 10.8 29.1997 3.33333 19.9997 3.33333ZM6.66634 20C6.66634 16.9167 7.71634 14.0833 9.48301 11.8333L14.2497 16.6C14.5997 19.2 16.633 21.25 19.233 21.5833L22.8997 25.25C21.9497 25.0833 20.983 25 19.9997 25C16.133 25 12.583 26.3333 9.76634 28.5333C7.83301 26.2167 6.66634 23.25 6.66634 20ZM19.9997 33.3333C17.0997 33.3333 14.433 32.4 12.2497 30.8333C14.433 29.2667 17.0997 28.3333 19.9997 28.3333C22.8997 28.3333 25.5663 29.2667 27.7497 30.8333C25.5663 32.4 22.8997 33.3333 19.9997 33.3333ZM30.5163 28.1667L11.833 9.48333C14.083 7.71666 16.9163 6.66666 19.9997 6.66666C27.3663 6.66666 33.333 12.6333 33.333 20C33.333 23.0833 32.283 25.9 30.5163 28.1667Z" fill="#FF5252"/>
</g>
<defs>
<clipPath id="clip0_1018_137">
<rect width="40" height="40" fill="white"/>
</clipPath>
</defs>
</svg>
