<svg width="40" height="40" viewBox="0 0 40 40" fill="none" xmlns="http://www.w3.org/2000/svg">
<g clip-path="url(#clip0_1026_18)">
<path d="M33.3337 13.3333H28.6503C27.9003 12.0333 26.867 10.9167 25.617 10.0667L28.3337 7.35L25.9837 5L22.367 8.61667C21.6003 8.43333 20.817 8.33333 20.0003 8.33333C19.1837 8.33333 18.4003 8.43333 17.6503 8.61667L14.017 5L11.667 7.35L14.367 10.0667C13.1337 10.9167 12.1003 12.0333 11.3503 13.3333H6.66699V16.6667H10.1503C10.067 17.2167 10.0003 17.7667 10.0003 18.3333V20H6.66699V23.3333H10.0003V25C10.0003 25.5667 10.067 26.1167 10.1503 26.6667H6.66699V30H11.3503C13.0837 32.9833 16.3003 35 20.0003 35C23.7003 35 26.917 32.9833 28.6503 30H33.3337V26.6667H29.8503C29.9337 26.1167 30.0003 25.5667 30.0003 25V23.3333H33.3337V20H30.0003V18.3333C30.0003 17.7667 29.9337 17.2167 29.8503 16.6667H33.3337V13.3333ZM23.3337 26.6667H16.667V23.3333H23.3337V26.6667ZM23.3337 20H16.667V16.6667H23.3337V20Z" fill="black"/>
</g>
<defs>
<clipPath id="clip0_1026_18">
<rect width="40" height="40" fill="white"/>
</clipPath>
</defs>
</svg>
