<svg width="40" height="40" viewBox="0 0 40 40" fill="none" xmlns="http://www.w3.org/2000/svg">
<g clip-path="url(#clip0_1155_1642)">
<path d="M35 5H5.00002C3.16669 5 1.66669 6.5 1.66669 8.33333V13.3333H5.00002V8.33333H35V31.6667H23.3334V35H35C36.8334 35 38.3334 33.5 38.3334 31.6667V8.33333C38.3334 6.5 36.8334 5 35 5ZM1.66669 30V35H6.66669C6.66669 32.2333 4.43335 30 1.66669 30ZM1.66669 23.3333V26.6667C6.26669 26.6667 10 30.4 10 35H13.3334C13.3334 28.55 8.11669 23.3333 1.66669 23.3333ZM1.66669 16.6667V20C9.95002 20 16.6667 26.7167 16.6667 35H20C20 24.8667 11.7834 16.6667 1.66669 16.6667Z" fill="white"/>
</g>
<defs>
<clipPath id="clip0_1155_1642">
<rect width="40" height="40" fill="white"/>
</clipPath>
</defs>
</svg>
