<svg width="41" height="35" viewBox="0 0 41 35" fill="none" xmlns="http://www.w3.org/2000/svg">
<path d="M30.2095 12.8714L22.0468 0.7745C21.6927 0.258167 21.0964 0 20.5 0C19.9036 0 19.3073 0.258167 18.9532 0.79294L10.7905 12.8714H1.86364C0.838636 12.8714 0 13.7013 0 14.7155C0 14.8815 0.0186363 15.0474 0.0745454 15.2134L4.80818 32.3077C5.23682 33.8567 6.67182 35 8.38636 35H32.6136C34.3282 35 35.7632 33.8567 36.2105 32.3077L40.9441 15.2134L41 14.7155C41 13.7013 40.1614 12.8714 39.1364 12.8714H30.2095ZM14.9091 12.8714L20.5 4.75764L26.0909 12.8714H14.9091ZM20.5 27.6238C18.45 27.6238 16.7727 25.9642 16.7727 23.9357C16.7727 21.9073 18.45 20.2476 20.5 20.2476C22.55 20.2476 24.2273 21.9073 24.2273 23.9357C24.2273 25.9642 22.55 27.6238 20.5 27.6238Z" fill="black"/>
</svg>
