<svg width="69" height="46" viewBox="0 0 69 46" fill="none" xmlns="http://www.w3.org/2000/svg">
<path d="M35 34.5H7V29.9H35V34.5ZM35 25.3H7V20.7H35V25.3ZM35 16.1H7V11.5H35V16.1ZM0 46L3.5 42.55L7 46L10.5 42.55L14 46L17.5 42.55L21 46L24.5 42.55L28 46L31.5 42.55L35 46L38.5 42.55L42 46V0L38.5 3.45L35 0L31.5 3.45L28 0L24.5 3.45L21 0L17.5 3.45L14 0L10.5 3.45L7 0L3.5 3.45L0 0V46Z" fill="black"/>
<path d="M53.3182 30.4478L47.8295 25.1194L46 26.8955L53.3182 34L69 18.7761L67.1705 17L53.3182 30.4478Z" fill="black"/>
</svg>
