<svg width="30" height="31" viewBox="0 0 30 31" fill="none" xmlns="http://www.w3.org/2000/svg">
<path d="M26.0281 17.0177C26.0901 16.5333 26.1211 16.0328 26.1211 15.5C26.1211 14.9833 26.0901 14.4667 26.0126 13.9823L29.1576 11.4312C29.4364 11.2052 29.5139 10.7693 29.3435 10.4464L26.369 5.08594C26.1831 4.73073 25.7958 4.61771 25.4549 4.73073L21.7523 6.28073C20.9777 5.66719 20.1566 5.15052 19.2425 4.76302L18.6848 0.661979C18.6228 0.274479 18.313 0 17.9412 0H11.9922C11.6203 0 11.326 0.274479 11.264 0.661979L10.7063 4.76302C9.79225 5.15052 8.95567 5.68333 8.19655 6.28073L4.4939 4.73073C4.15307 4.60156 3.76577 4.73073 3.57986 5.08594L0.62084 10.4464C0.434933 10.7854 0.496902 11.2052 0.806747 11.4312L3.95167 13.9823C3.87421 14.4667 3.81224 14.9995 3.81224 15.5C3.81224 16.0005 3.84323 16.5333 3.92069 17.0177L0.775762 19.5688C0.496902 19.7948 0.419441 20.2307 0.589856 20.5536L3.56437 25.9141C3.75027 26.2693 4.13758 26.3823 4.47841 26.2693L8.18106 24.7193C8.95567 25.3328 9.77676 25.8495 10.6908 26.237L11.2485 30.338C11.326 30.7255 11.6203 31 11.9922 31H17.9412C18.313 31 18.6228 30.7255 18.6693 30.338L19.227 26.237C20.1411 25.8495 20.9777 25.3328 21.7368 24.7193L25.4394 26.2693C25.7803 26.3984 26.1676 26.2693 26.3535 25.9141L29.328 20.5536C29.5139 20.1984 29.4364 19.7948 29.1421 19.5688L26.0281 17.0177ZM14.9667 21.3125C11.8992 21.3125 9.38945 18.6969 9.38945 15.5C9.38945 12.3031 11.8992 9.6875 14.9667 9.6875C18.0341 9.6875 20.5439 12.3031 20.5439 15.5C20.5439 18.6969 18.0341 21.3125 14.9667 21.3125Z" fill="white"/>
</svg>
