<svg width="46" height="44" viewBox="0 0 46 44" fill="none" xmlns="http://www.w3.org/2000/svg">
<path d="M8.75773 19.7049H0V43.7887H8.75773V19.7049Z" fill="black"/>
<path d="M32.8417 2.73679C34.2648 1.07282 36.4761 0 38.7532 0C42.8036 0 45.9783 3.17468 45.9783 7.22513C45.9783 12.1951 39.607 17.9534 32.8417 24.0838C26.0763 17.9315 19.7051 12.1733 19.7051 7.22513C19.7051 3.17468 22.8798 0 26.9302 0C29.2072 0 31.4185 1.07282 32.8417 2.73679Z" fill="black"/>
<path d="M41.5989 32.8415H26.2728L21.6969 31.2432L22.4194 29.1852L26.2728 30.6521H32.447C33.8702 30.6521 35.0306 29.4917 35.0306 28.0686C35.0306 26.9957 34.3518 26.0324 33.3447 25.6383L17.4494 19.7049H13.1362V39.4536L28.4623 43.7887L45.9996 37.2204C45.9777 34.812 44.0291 32.8415 41.5989 32.8415Z" fill="black"/>
</svg>
