<svg width="66" height="46" viewBox="0 0 66 46" fill="none" xmlns="http://www.w3.org/2000/svg">
<path d="M35 34.5H7V29.9H35V34.5ZM35 25.3H7V20.7H35V25.3ZM35 16.1H7V11.5H35V16.1ZM0 46L3.5 42.55L7 46L10.5 42.55L14 46L17.5 42.55L21 46L24.5 42.55L28 46L31.5 42.55L35 46L38.5 42.55L42 46V0L38.5 3.45L35 0L31.5 3.45L28 0L24.5 3.45L21 0L17.5 3.45L14 0L10.5 3.45L7 0L3.5 3.45L0 0V46Z" fill="black"/>
<path d="M55.99 13C50.47 13 46 17.48 46 23C46 28.52 50.47 33 55.99 33C61.52 33 66 28.52 66 23C66 17.48 61.52 13 55.99 13ZM56 31C51.58 31 48 27.42 48 23C48 18.58 51.58 15 56 15C60.42 15 64 18.58 64 23C64 27.42 60.42 31 56 31Z" fill="black"/>
<path d="M56.5 18H55V24L60.25 27.15L61 25.92L56.5 23.25V18Z" fill="black"/>
</svg>
