<svg width="40" height="32" viewBox="0 0 40 32" fill="none" xmlns="http://www.w3.org/2000/svg">
<path d="M14 6.6105V13.3886L11.4563 14.9157C10.55 15.4602 10 16.4365 10 17.4942V31.8139H16V25.8057C16 23.5964 17.7938 21.8002 20 21.8002C22.2062 21.8002 24 23.5964 24 25.8057V31.8139H30V17.4942C30 16.4365 29.45 15.4602 28.5438 14.9157L26 13.3886V6.6105C26 6.07852 25.7875 5.57157 25.4125 5.19606L20.7062 0.477061C20.3187 0.0890266 19.6813 0.0890266 19.2938 0.477061L14.5875 5.1898C14.2125 5.56531 14 6.07226 14 6.60424V6.6105ZM1.55625 20.442C0.59375 20.974 0 21.9817 0 23.0769V28.8098C0 30.4683 1.34375 31.8139 3 31.8139H8V16.8934L1.55625 20.442ZM37 31.8139C38.6562 31.8139 40 30.4683 40 28.8098V23.0769C40 21.9817 39.4062 20.974 38.4437 20.442L32 16.8934V31.8139H37Z" fill="black"/>
</svg>
