<svg width="40" height="40" viewBox="0 0 40 40" fill="none" xmlns="http://www.w3.org/2000/svg">
<g clip-path="url(#clip0_1020_144)">
<path d="M21.0837 16.6667C19.717 12.7833 16.017 10 11.667 10C6.15033 10 1.66699 14.4833 1.66699 20C1.66699 25.5167 6.15033 30 11.667 30C16.017 30 19.717 27.2167 21.0837 23.3333H28.3337V30H35.0003V23.3333H38.3337V16.6667H21.0837ZM11.667 23.3333C9.83366 23.3333 8.33366 21.8333 8.33366 20C8.33366 18.1667 9.83366 16.6667 11.667 16.6667C13.5003 16.6667 15.0003 18.1667 15.0003 20C15.0003 21.8333 13.5003 23.3333 11.667 23.3333Z" fill="black"/>
</g>
<defs>
<clipPath id="clip0_1020_144">
<rect width="40" height="40" fill="white"/>
</clipPath>
</defs>
</svg>
