<svg width="40" height="40" viewBox="0 0 40 40" fill="none" xmlns="http://www.w3.org/2000/svg">
<g clip-path="url(#clip0_1026_12)">
<path d="M33.333 6.66667H6.66634C4.83301 6.66667 3.33301 8.16667 3.33301 10V30C3.33301 31.8333 4.83301 33.3333 6.66634 33.3333H33.333C35.1663 33.3333 36.6663 31.8333 36.6663 30V10C36.6663 8.16667 35.1663 6.66667 33.333 6.66667ZM32.6663 13.75L21.7663 20.5667C20.683 21.25 19.3163 21.25 18.233 20.5667L7.33301 13.75C6.91634 13.4833 6.66634 13.0333 6.66634 12.55C6.66634 11.4333 7.88301 10.7667 8.83301 11.35L19.9997 18.3333L31.1663 11.35C32.1163 10.7667 33.333 11.4333 33.333 12.55C33.333 13.0333 33.083 13.4833 32.6663 13.75Z" fill="black"/>
</g>
<defs>
<clipPath id="clip0_1026_12">
<rect width="40" height="40" fill="white"/>
</clipPath>
</defs>
</svg>
