<svg width="28" height="23" viewBox="0 0 28 23" fill="none" xmlns="http://www.w3.org/2000/svg">
<path d="M19.2182 12.197L17.3727 10.5126C17.5636 9.60269 17.2773 8.75084 16.5136 7.95707C15.75 7.1633 14.7636 6.85354 13.5545 7.02778L11.7091 5.34343C12.0697 5.18855 12.4356 5.07239 12.8068 4.99495C13.178 4.91751 13.5758 4.87879 14 4.87879C15.5909 4.87879 16.9432 5.38699 18.0568 6.40341C19.1705 7.41982 19.7273 8.65404 19.7273 10.1061C19.7273 10.4933 19.6848 10.8563 19.6 11.1951C19.5152 11.5339 19.3879 11.8678 19.2182 12.197ZM23.2909 15.8561L21.4455 14.2298C22.2515 13.6683 22.9674 13.0537 23.5932 12.3857C24.2189 11.7178 24.7545 10.9579 25.2 10.1061C24.1394 8.15067 22.6174 6.59701 20.6341 5.44508C18.6508 4.29314 16.4394 3.71717 14 3.71717C13.3848 3.71717 12.7803 3.75589 12.1864 3.83333C11.5924 3.91077 11.0091 4.02694 10.4364 4.18182L8.46364 2.38131C9.33333 2.05219 10.2242 1.80535 11.1364 1.64078C12.0485 1.47622 13.003 1.39394 14 1.39394C17.203 1.39394 20.0561 2.20223 22.5591 3.81881C25.0621 5.4354 26.8758 7.53114 28 10.1061C27.5121 11.2483 26.8705 12.3083 26.075 13.286C25.2795 14.2637 24.3515 15.1204 23.2909 15.8561ZM23.9273 23L18.5818 18.1793C17.8394 18.3923 17.0917 18.552 16.3386 18.6585C15.5856 18.7649 14.8061 18.8182 14 18.8182C10.797 18.8182 7.94394 18.0099 5.44091 16.3933C2.93788 14.7767 1.12424 12.681 0 10.1061C0.445455 9.07997 1.00758 8.12647 1.68636 7.24558C2.36515 6.36469 3.13939 5.57576 4.00909 4.87879L0.509091 1.62626L2.29091 0L25.7091 21.3737L23.9273 23ZM5.79091 6.50505C5.17576 7.00842 4.61364 7.56019 4.10455 8.16035C3.59545 8.76052 3.16061 9.40909 2.8 10.1061C3.86061 12.0614 5.38258 13.6151 7.36591 14.767C9.34924 15.919 11.5606 16.4949 14 16.4949C14.4242 16.4949 14.8379 16.4707 15.2409 16.4223C15.6439 16.3739 16.0576 16.3207 16.4818 16.2626L15.3364 15.1591C15.103 15.2172 14.8803 15.2607 14.6682 15.2898C14.4561 15.3188 14.2333 15.3333 14 15.3333C12.4091 15.3333 11.0568 14.8251 9.94318 13.8087C8.82955 12.7923 8.27273 11.5581 8.27273 10.1061C8.27273 9.8931 8.28864 9.68981 8.32045 9.49621C8.35227 9.30261 8.4 9.09933 8.46364 8.88636L5.79091 6.50505Z" fill="black"/>
</svg>
