<svg width="52" height="42" viewBox="0 0 52 42" fill="none" xmlns="http://www.w3.org/2000/svg">
<path d="M35.6909 22.2727L32.2636 19.197C32.6182 17.5354 32.0864 15.9798 30.6682 14.5303C29.25 13.0808 27.4182 12.5152 25.1727 12.8333L21.7455 9.75758C22.4152 9.47475 23.0947 9.26263 23.7841 9.12121C24.4735 8.9798 25.2121 8.90909 26 8.90909C28.9545 8.90909 31.4659 9.83712 33.5341 11.6932C35.6023 13.5492 36.6364 15.803 36.6364 18.4545C36.6364 19.1616 36.5576 19.8245 36.4 20.4432C36.2424 21.0619 36.0061 21.6717 35.6909 22.2727ZM43.2545 28.9545L39.8273 25.9848C41.3242 24.9596 42.6538 23.8371 43.8159 22.6174C44.978 21.3977 45.9727 20.0101 46.8 18.4545C44.8303 14.8838 42.0038 12.0467 38.3205 9.94318C34.6371 7.83965 30.5303 6.78788 26 6.78788C24.8576 6.78788 23.7348 6.85859 22.6318 7C21.5288 7.14141 20.4455 7.35354 19.3818 7.63636L15.7182 4.34848C17.3333 3.74747 18.9879 3.29672 20.6818 2.99621C22.3758 2.69571 24.1485 2.54545 26 2.54545C31.9485 2.54545 37.247 4.02146 41.8955 6.97349C46.5439 9.92551 49.9121 13.7525 52 18.4545C51.0939 20.5404 49.9023 22.476 48.425 24.2614C46.9477 26.0467 45.2242 27.6111 43.2545 28.9545ZM44.4364 42L34.5091 33.197C33.1303 33.5859 31.7417 33.8775 30.3432 34.072C28.9447 34.2664 27.497 34.3636 26 34.3636C20.0515 34.3636 14.753 32.8876 10.1045 29.9356C5.45606 26.9836 2.08788 23.1566 0 18.4545C0.827273 16.5808 1.87121 14.8396 3.13182 13.2311C4.39242 11.6225 5.8303 10.1818 7.44545 8.90909L0.945455 2.9697L4.25455 0L47.7455 39.0303L44.4364 42ZM10.7545 11.8788C9.61212 12.798 8.56818 13.8056 7.62273 14.9015C6.67727 15.9975 5.8697 17.1818 5.2 18.4545C7.1697 22.0253 9.99621 24.8624 13.6795 26.9659C17.3629 29.0694 21.4697 30.1212 26 30.1212C26.7879 30.1212 27.5561 30.077 28.3045 29.9886C29.053 29.9003 29.8212 29.803 30.6091 29.697L28.4818 27.6818C28.0485 27.7879 27.6348 27.8674 27.2409 27.9205C26.847 27.9735 26.4333 28 26 28C23.0455 28 20.5341 27.072 18.4659 25.2159C16.3977 23.3598 15.3636 21.1061 15.3636 18.4545C15.3636 18.0657 15.3932 17.6944 15.4523 17.3409C15.5114 16.9874 15.6 16.6162 15.7182 16.2273L10.7545 11.8788Z" fill="white"/>
</svg>
