<svg width="27" height="19" viewBox="0 0 27 19" fill="none" xmlns="http://www.w3.org/2000/svg">
<path d="M13.5 15.2C15.0341 15.2 16.3381 14.6458 17.4119 13.5375C18.4858 12.4292 19.0227 11.0833 19.0227 9.5C19.0227 7.91667 18.4858 6.57083 17.4119 5.4625C16.3381 4.35417 15.0341 3.8 13.5 3.8C11.9659 3.8 10.6619 4.35417 9.58807 5.4625C8.5142 6.57083 7.97727 7.91667 7.97727 9.5C7.97727 11.0833 8.5142 12.4292 9.58807 13.5375C10.6619 14.6458 11.9659 15.2 13.5 15.2ZM13.5 12.92C12.5795 12.92 11.7972 12.5875 11.1528 11.9225C10.5085 11.2575 10.1864 10.45 10.1864 9.5C10.1864 8.55 10.5085 7.7425 11.1528 7.0775C11.7972 6.4125 12.5795 6.08 13.5 6.08C14.4205 6.08 15.2028 6.4125 15.8472 7.0775C16.4915 7.7425 16.8136 8.55 16.8136 9.5C16.8136 10.45 16.4915 11.2575 15.8472 11.9225C15.2028 12.5875 14.4205 12.92 13.5 12.92ZM13.5 19C10.5136 19 7.79318 18.1397 5.33864 16.4192C2.88409 14.6986 1.10455 12.3922 0 9.5C1.10455 6.60778 2.88409 4.30139 5.33864 2.58083C7.79318 0.860278 10.5136 0 13.5 0C16.4864 0 19.2068 0.860278 21.6614 2.58083C24.1159 4.30139 25.8955 6.60778 27 9.5C25.8955 12.3922 24.1159 14.6986 21.6614 16.4192C19.2068 18.1397 16.4864 19 13.5 19ZM13.5 16.4667C15.8114 16.4667 17.9335 15.8386 19.8665 14.5825C21.7994 13.3264 23.2773 11.6322 24.3 9.5C23.2773 7.36778 21.7994 5.67361 19.8665 4.4175C17.9335 3.16139 15.8114 2.53333 13.5 2.53333C11.1886 2.53333 9.06648 3.16139 7.13352 4.4175C5.20057 5.67361 3.72273 7.36778 2.7 9.5C3.72273 11.6322 5.20057 13.3264 7.13352 14.5825C9.06648 15.8386 11.1886 16.4667 13.5 16.4667Z" fill="black"/>
</svg>
