<svg width="50" height="34" viewBox="0 0 50 34" fill="none" xmlns="http://www.w3.org/2000/svg">
<path d="M25 27.2C27.8409 27.2 30.2557 26.2083 32.2443 24.225C34.233 22.2417 35.2273 19.8333 35.2273 17C35.2273 14.1667 34.233 11.7583 32.2443 9.775C30.2557 7.79167 27.8409 6.8 25 6.8C22.1591 6.8 19.7443 7.79167 17.7557 9.775C15.767 11.7583 14.7727 14.1667 14.7727 17C14.7727 19.8333 15.767 22.2417 17.7557 24.225C19.7443 26.2083 22.1591 27.2 25 27.2ZM25 23.12C23.2955 23.12 21.8466 22.525 20.6534 21.335C19.4602 20.145 18.8636 18.7 18.8636 17C18.8636 15.3 19.4602 13.855 20.6534 12.665C21.8466 11.475 23.2955 10.88 25 10.88C26.7045 10.88 28.1534 11.475 29.3466 12.665C30.5398 13.855 31.1364 15.3 31.1364 17C31.1364 18.7 30.5398 20.145 29.3466 21.335C28.1534 22.525 26.7045 23.12 25 23.12ZM25 34C19.4697 34 14.4318 32.4606 9.88636 29.3817C5.34091 26.3028 2.04545 22.1756 0 17C2.04545 11.8244 5.34091 7.69722 9.88636 4.61833C14.4318 1.53944 19.4697 0 25 0C30.5303 0 35.5682 1.53944 40.1136 4.61833C44.6591 7.69722 47.9545 11.8244 50 17C47.9545 22.1756 44.6591 26.3028 40.1136 29.3817C35.5682 32.4606 30.5303 34 25 34ZM25 29.4667C29.2803 29.4667 33.2102 28.3428 36.7898 26.095C40.3693 23.8472 43.1061 20.8156 45 17C43.1061 13.1844 40.3693 10.1528 36.7898 7.905C33.2102 5.65722 29.2803 4.53333 25 4.53333C20.7197 4.53333 16.7898 5.65722 13.2102 7.905C9.63068 10.1528 6.89394 13.1844 5 17C6.89394 20.8156 9.63068 23.8472 13.2102 26.095C16.7898 28.3428 20.7197 29.4667 25 29.4667Z" fill="white"/>
</svg>
