<svg width="30" height="32" viewBox="0 0 30 32" fill="none" xmlns="http://www.w3.org/2000/svg">
<path d="M24.6333 24H5.29999V20.8H24.6333V24ZM24.6333 17.6H5.29999V14.4H24.6333V17.6ZM24.6333 11.2H5.29999V8H24.6333V11.2ZM0.46666 32L2.88333 29.6L5.29999 32L7.71666 29.6L10.1333 32L12.55 29.6L14.9667 32L17.3833 29.6L19.8 32L22.2167 29.6L24.6333 32L27.05 29.6L29.4667 32V0L27.05 2.4L24.6333 0L22.2167 2.4L19.8 0L17.3833 2.4L14.9667 0L12.55 2.4L10.1333 0L7.71666 2.4L5.29999 0L2.88333 2.4L0.46666 0V32Z" fill="white"/>
</svg>
