<svg width="67" height="74" viewBox="0 0 67 74" fill="none" xmlns="http://www.w3.org/2000/svg">
<path d="M55.8333 55.5H11.1667V48.1H55.8333V55.5ZM55.8333 40.7H11.1667V33.3H55.8333V40.7ZM55.8333 25.9H11.1667V18.5H55.8333V25.9ZM0 74L5.58333 68.45L11.1667 74L16.75 68.45L22.3333 74L27.9167 68.45L33.5 74L39.0833 68.45L44.6667 74L50.25 68.45L55.8333 74L61.4167 68.45L67 74V0L61.4167 5.55L55.8333 0L50.25 5.55L44.6667 0L39.0833 5.55L33.5 0L27.9167 5.55L22.3333 0L16.75 5.55L11.1667 0L5.58333 5.55L0 0V74Z" fill="black"/>
</svg>
