<svg width="48" height="48" viewBox="0 0 48 48" fill="none" xmlns="http://www.w3.org/2000/svg">
<path d="M24 0C10.752 0 0 10.752 0 24C0 37.248 10.752 48 24 48C37.248 48 48 37.248 48 24C48 10.752 37.248 0 24 0ZM26.112 37.824V40.8H21.912V37.704C20.136 37.272 16.176 35.856 14.664 30.6L18.624 28.992C18.768 29.52 20.016 34.008 24.384 34.008C26.616 34.008 29.136 32.856 29.136 30.144C29.136 27.84 27.456 26.64 23.664 25.272C21.024 24.336 15.624 22.8 15.624 17.328C15.624 17.088 15.648 11.568 21.912 10.224V7.2H26.112V10.176C30.528 10.944 32.136 14.472 32.496 15.528L28.704 17.136C28.44 16.296 27.288 13.92 24.144 13.92C22.464 13.92 19.8 14.808 19.8 17.256C19.8 19.536 21.864 20.4 26.136 21.816C31.896 23.808 33.36 26.736 33.36 30.096C33.36 36.408 27.36 37.608 26.112 37.824Z" fill="white"/>
</svg>
