<svg width="62" height="62" viewBox="0 0 62 62" fill="none" xmlns="http://www.w3.org/2000/svg">
<path d="M31 0C13.888 0 0 13.888 0 31C0 48.112 13.888 62 31 62C48.112 62 62 48.112 62 31C62 13.888 48.112 0 31 0ZM33.728 48.856V52.7H28.303V48.701C26.009 48.143 20.894 46.314 18.941 39.525L24.056 37.448C24.242 38.13 25.854 43.927 31.496 43.927C34.379 43.927 37.634 42.439 37.634 38.936C37.634 35.96 35.464 34.41 30.566 32.643C27.156 31.434 20.181 29.45 20.181 22.382C20.181 22.072 20.212 14.942 28.303 13.206V9.3H33.728V13.144C39.432 14.136 41.509 18.693 41.974 20.057L37.076 22.134C36.735 21.049 35.247 17.98 31.186 17.98C29.016 17.98 25.575 19.127 25.575 22.289C25.575 25.234 28.241 26.35 33.759 28.179C41.199 30.752 43.09 34.534 43.09 38.874C43.09 47.027 35.34 48.577 33.728 48.856Z" fill="black"/>
</svg>
