<svg width="44" height="29" viewBox="0 0 44 29" fill="none" xmlns="http://www.w3.org/2000/svg">
<path d="M39.9167 9.29168V5.70834H36.3333V9.29168H32.75V12.875H36.3333V16.4583H39.9167V12.875H43.5V9.29168H39.9167Z" fill="white"/>
<path d="M14.8333 14.6667C18.7929 14.6667 22 11.4596 22 7.50001C22 3.54043 18.7929 0.333344 14.8333 0.333344C10.8737 0.333344 7.66667 3.54043 7.66667 7.50001C7.66667 11.4596 10.8737 14.6667 14.8333 14.6667Z" fill="white"/>
<path d="M14.8333 16.4583C10.0496 16.4583 0.5 18.8592 0.5 23.625V29H29.1667V23.625C29.1667 18.8592 19.6171 16.4583 14.8333 16.4583Z" fill="white"/>
<path d="M22.9138 0.422913C24.5621 2.32208 25.5833 4.79458 25.5833 7.5C25.5833 10.2054 24.5621 12.6779 22.9138 14.5771C26.4254 14.1292 29.1667 11.155 29.1667 7.5C29.1667 3.845 26.4254 0.870829 22.9138 0.422913Z" fill="white"/>
<path d="M30.1162 17.9454C31.7108 19.4325 32.75 21.2959 32.75 23.625V29H36.3333V23.625C36.3333 21.0271 33.4846 19.1279 30.1162 17.9454Z" fill="white"/>
</svg>
