<svg width="81" height="54" viewBox="0 0 81 54" fill="none" xmlns="http://www.w3.org/2000/svg">
<path d="M74.25 16.875V10.125H67.5V16.875H60.75V23.625H67.5V30.375H74.25V23.625H81V16.875H74.25Z" fill="black"/>
<path d="M27 27C34.4587 27 40.5 20.9587 40.5 13.5C40.5 6.04125 34.4587 0 27 0C19.5412 0 13.5 6.04125 13.5 13.5C13.5 20.9587 19.5412 27 27 27Z" fill="black"/>
<path d="M27 30.375C17.9888 30.375 0 34.8975 0 43.875V54H54V43.875C54 34.8975 36.0112 30.375 27 30.375Z" fill="black"/>
<path d="M42.2213 0.168762C45.3263 3.74626 47.25 8.40376 47.25 13.5C47.25 18.5963 45.3263 23.2538 42.2213 26.8313C48.8363 25.9875 54 20.385 54 13.5C54 6.61501 48.8363 1.01251 42.2213 0.168762Z" fill="black"/>
<path d="M55.7887 33.1763C58.7925 35.9775 60.75 39.4875 60.75 43.875V54H67.5V43.875C67.5 38.9813 62.1337 35.4038 55.7887 33.1763Z" fill="black"/>
</svg>
